<svg xmlns="http://www.w3.org/2000/svg" viewBox="0 0 16 16"><path fill="#1976D2" d="M7.341 4.04c.302.415.453.91.453 1.489 0 .595-.151 1.075-.457 1.437-.172.201-.423.387-.755.554.504.182.884.469 1.143.861.256.392.385.869.385 1.429 0 .578-.147 1.097-.441 1.555-.186.303-.42.56-.7.767a2.747 2.747 0 0 1-1.117.49c-.43.088-.895.131-1.397.131H0V3h4.778c1.206.018 2.059.364 2.563 1.04zm-5.37.654v2.152h2.404c.428 0 .777-.081 1.046-.242.267-.161.402-.447.402-.856 0-.456-.177-.755-.531-.902-.306-.101-.696-.152-1.169-.152H1.971zm0 3.766v2.601h2.401c.429 0 .764-.057 1.002-.172.434-.214.65-.618.65-1.218 0-.509-.209-.857-.629-1.047-.236-.105-.566-.161-.99-.164H1.971zm12.116-2.772c.511.225.931.581 1.262 1.067.302.429.496.926.584 1.491.052.33.072.809.064 1.432H10.67c.032.723.284 1.231.766 1.521.292.181.642.272 1.055.272.434 0 .788-.11 1.06-.33.15-.12.281-.285.394-.496h1.952c-.052.427-.289.862-.708 1.304-.655.7-1.572 1.051-2.751 1.051-.974 0-1.832-.295-2.575-.887-.746-.591-1.117-1.554-1.117-2.887 0-1.25.336-2.209 1.007-2.876.673-.665 1.543-1 2.614-1 .638-.001 1.211.112 1.72.338zm-2.859 1.629c-.27.275-.44.647-.51 1.116h3.295c-.035-.501-.206-.88-.509-1.141-.307-.259-.684-.388-1.135-.388-.489.001-.871.139-1.141.413zm-1.004-2.648h4.237V3.455h-4.237v1.214z"/></svg>